<?xml version="1.0" standalone="no"?>
<!DOCTYPE svg PUBLIC "-//W3C//DTD SVG 20010904//EN"
 "http://www.w3.org/TR/2001/REC-SVG-20010904/DTD/svg10.dtd">
<svg version="1.0" xmlns="http://www.w3.org/2000/svg"
 width="300.000000pt" height="300.000000pt" viewBox="0 0 300.000000 300.000000"
 preserveAspectRatio="xMidYMid meet">

<g transform="translate(0.000000,300.000000) scale(0.100000,-0.100000)"
fill="#000000" stroke="none">
<path d="M342 2067 l-343 -566 343 -567 343 -567 3 185 2 185 -225 374 c-124
205 -223 379 -220 387 3 8 104 178 225 377 l220 364 -2 197 -3 198 -343 -567z"/>
<path d="M2310 2414 l0 -210 216 -358 216 -358 -65 -106 c-35 -59 -132 -220
-216 -358 l-151 -252 2 -198 3 -199 254 420 c140 231 295 485 343 564 58 94
85 147 79 155 -5 6 -156 254 -336 551 -180 297 -331 544 -336 550 -5 5 -9 -73
-9 -201z"/>
<path d="M793 1939 c-52 -26 -88 -67 -120 -136 -77 -167 -38 -353 100 -478 32
-30 56 -58 52 -64 -10 -17 -40 -13 -60 9 -34 38 -42 26 -33 -47 32 -244 205
-491 462 -661 60 -40 118 -72 128 -72 11 0 45 24 76 54 41 38 77 62 127 82 39
15 81 36 93 48 13 12 85 111 160 221 74 110 153 223 174 252 21 29 38 54 38
56 0 3 -19 8 -42 11 -24 4 -65 18 -91 30 l-49 24 -34 -38 c-67 -74 -253 -149
-335 -135 -34 6 -38 4 -41 -17 -2 -15 -11 -24 -27 -26 -23 -4 -23 -2 -16 45
18 114 -13 210 -85 260 -17 12 -21 10 -39 -32 -20 -46 -45 -65 -62 -48 -6 6 1
35 21 80 37 88 46 159 30 250 -32 194 -181 353 -329 353 -37 0 -71 -7 -98 -21z"/>
<path d="M1909 1944 c-64 -22 -138 -80 -177 -138 -122 -183 -55 -425 146 -523
49 -24 69 -27 147 -27 78 0 98 3 147 27 75 37 138 99 174 172 26 53 29 71 29
150 0 76 -4 99 -26 146 -36 77 -87 130 -161 169 -55 30 -74 34 -148 37 -59 2
-99 -2 -131 -13z m195 -225 c105 -83 53 -249 -79 -249 -132 0 -184 166 -79
249 19 15 41 21 79 21 38 0 60 -6 79 -21z"/>
</g>
</svg>
