<?xml version="1.0" standalone="no"?>
<!DOCTYPE svg PUBLIC "-//W3C//DTD SVG 20010904//EN"
 "http://www.w3.org/TR/2001/REC-SVG-20010904/DTD/svg10.dtd">
<svg version="1.0" xmlns="http://www.w3.org/2000/svg"
 width="300.000000pt" height="300.000000pt" viewBox="0 0 300.000000 300.000000"
 preserveAspectRatio="xMidYMid meet">

<g transform="translate(0.000000,300.000000) scale(0.100000,-0.100000)"
fill="#000000" stroke="none">
<path d="M1597 2692 l-108 -108 548 -547 547 -548 -547 -547 -548 -548 103
-102 103 -102 655 655 655 655 -650 650 -650 650 -108 -108z"/>
<path d="M635 2140 l-640 -640 645 -645 c355 -355 650 -645 655 -645 6 0 51
40 100 90 l89 90 -29 31 c-17 17 -263 263 -547 548 l-517 517 544 544 c300
300 545 547 545 550 0 8 -191 200 -199 200 -3 0 -294 -288 -646 -640z"/>
<path d="M1025 1950 l-460 -460 460 -460 460 -460 460 460 460 460 -460 460
-460 460 -460 -460z m415 71 c0 -5 -16 -32 -35 -61 -47 -69 -59 -119 -52 -212
7 -82 -4 -109 -22 -56 -18 50 -13 151 9 210 27 72 100 159 100 119z m330 -35
c131 -65 162 -247 62 -358 -143 -159 -401 -61 -402 152 0 179 177 287 340 206z
m232 -178 c8 -24 -12 -139 -31 -176 -34 -67 -91 -125 -91 -93 0 5 16 32 35 61
39 58 55 106 55 166 0 22 3 44 7 47 10 10 21 8 25 -5z m-929 -194 c94 -32 183
-143 196 -245 7 -59 25 -69 29 -16 2 25 8 37 18 37 43 0 118 -67 130 -116 3
-13 13 -24 21 -24 10 0 14 7 10 20 -4 16 2 24 28 34 42 18 109 103 132 167 15
41 22 49 43 50 29 1 48 4 73 14 21 9 21 20 2 -225 -11 -138 -20 -200 -31 -215
-49 -66 -74 -112 -74 -135 0 -39 -18 -50 -80 -50 -192 2 -407 90 -500 207 -45
56 -48 65 -17 58 15 -4 28 -2 32 5 9 15 -12 30 -43 30 -30 0 -100 35 -135 69
-41 37 -74 107 -82 171 -16 139 99 215 248 164z"/>
<path d="M1595 1844 c-33 -35 -33 -84 -1 -121 19 -22 32 -28 66 -28 82 0 119
88 61 146 -39 39 -92 40 -126 3z"/>
</g>
</svg>
